<?xml version="1.0" encoding="utf-8"?>
<svg xmlns="http://www.w3.org/2000/svg" style="margin: auto; background: none; display: block; shape-rendering: auto;" width="280" height="250" preserveAspectRatio="xMidYMid">
<style type="text/css">
  text {
    text-anchor: middle; font-size: 80px; opacity: 0;
  }
</style>
<g style="transform-origin:140px 125px;transform:scale(1)">
<g transform="translate(140,125)">
  <g transform="translate(0,0)"><g class="path" style="transform: scale(0.91); transform-origin: -83.08px 3.94489px; animation: 1s linear -0.586667s infinite normal forwards running breath-45bd7bb5-1e7a-4344-b187-5f5ec409f0fe;"><path d="M0.80 17.84L0.80 17.84Q0.80 13.68 5.96 10.64L5.96 10.64L5.96 10.64Q11.12 7.60 18.60 7.60L18.60 7.60L18.60 7.60Q26.08 7.60 34.96 11.12L34.96 11.12L34.96 11.12Q45.44 3.36 52.36-7.16L52.36-7.16L52.36-7.16Q59.28-17.68 59.28-27.36L59.28-27.36L59.28-27.36Q59.28-37.04 54.24-42.12L54.24-42.12L54.24-42.12Q49.20-47.20 39.76-47.20L39.76-47.20L39.76-47.20Q31.68-47.20 24.64-39.04L24.64-39.04L24.64-39.04Q21.12-34.96 18.96-27.64L18.96-27.64L18.96-27.64Q16.80-20.32 16.80-10.88L16.80-10.88L16.80-10.88Q16.80-7.52 17.48-5.08L17.48-5.08L17.48-5.08Q18.16-2.64 19-1.52L19-1.52L19-1.52Q19.84-0.40 21.28 0.24L21.28 0.24L21.28 0.24Q22.96 1.04 25.28 1.04L25.28 1.04L25.28 1.04Q30.08 1.04 34.20-4.24L34.20-4.24L34.20-4.24Q38.32-9.52 38.32-16.72L38.32-16.72L38.32-16.72Q38.32-23.52 33.76-26.32L33.76-26.32L33.76-26.32Q32-27.36 29.04-27.68L29.04-27.68L29.04-29.28L29.04-29.28Q33.36-29.28 36.64-26.04L36.64-26.04L36.64-26.04Q39.92-22.80 39.92-16.72L39.92-16.72L39.92-16.72Q39.92-8.88 35.12-2.80L35.12-2.80L35.12-2.80Q30.32 3.28 22.52 3.28L22.52 3.28L22.52 3.28Q14.72 3.28 10.72-1.12L10.72-1.12L10.72-1.12Q6.72-5.52 6.72-13.52L6.72-13.52L6.72-13.52Q6.72-23.44 11.84-32.32L11.84-32.32L11.84-32.32Q14.48-36.96 18.24-40.60L18.24-40.60L18.24-40.60Q22-44.24 27.60-46.52L27.60-46.52L27.60-46.52Q33.20-48.80 39.76-48.80L39.76-48.80L39.76-48.80Q49.76-48.80 55.28-43.24L55.28-43.24L55.28-43.24Q60.80-37.68 60.80-27.60L60.80-27.60L60.80-27.60Q60.80-17.52 53.96-6.92L53.96-6.92L53.96-6.92Q47.12 3.68 36.56 11.76L36.56 11.76L36.56 11.76Q39.44 12.96 44.48 15.60L44.48 15.60L44.48 15.60Q49.52 18.24 52.92 19.52L52.92 19.52L52.92 19.52Q56.32 20.80 59.04 20.80L59.04 20.80L59.04 20.80Q61.76 20.80 63.80 20.08L63.80 20.08L63.80 20.08Q65.84 19.36 67.04 18.40L67.04 18.40L67.04 18.40Q68.24 17.44 69.12 16.32L69.12 16.32L69.12 16.32Q70.40 14.64 70.72 13.76L70.72 13.76L72.24 14.16L72.24 14.16Q68.80 23.52 52.16 23.52L52.16 23.52L52.16 23.52Q47.36 23.52 42.72 22.44L42.72 22.44L42.72 22.44Q38.08 21.36 35.56 20.28L35.56 20.28L35.56 20.28Q33.04 19.20 28.80 17.12L28.80 17.12L28.80 17.12Q17.76 23.52 8.24 23.52L8.24 23.52L8.24 23.52Q4.48 23.52 2.64 21.88L2.64 21.88L2.64 21.88Q0.80 20.24 0.80 17.84L0.80 17.84zM2.64 17.84L2.64 17.84L2.64 17.84Q2.64 19.68 4.24 20.80L4.24 20.80L4.24 20.80Q5.84 21.92 8.64 21.92L8.64 21.92L8.64 21.92Q17.12 21.92 27.12 16.24L27.12 16.24L27.12 16.24Q17.84 11.76 10.96 11.76L10.96 11.76L10.96 11.76Q7.76 11.76 5.20 13.36L5.20 13.36L5.20 13.36Q2.64 14.96 2.64 17.84" fill="#51cacc" stroke="none" stroke-width="none" transform="translate(-119.60000038146973,16.584889662000865)" style="fill: rgb(81, 202, 204);"></path></g><g class="path" style="transform: scale(0.91); transform-origin: -34.92px 1.38489px; animation: 1s linear -0.513333s infinite normal forwards running breath-45bd7bb5-1e7a-4344-b187-5f5ec409f0fe;"><path d="M72-29.52L72-29.52L72-29.52Q70.08-29.52 68-27.28L68-27.28L66.80-28.24L66.80-28.24Q67.36-29.36 69.28-30.24L69.28-30.24L69.28-30.24Q71.20-31.12 73.52-31.12L73.52-31.12L73.52-31.12Q80.80-31.12 80.80-24.56L80.80-24.56L80.80-24.56Q80.80-21.76 79.36-14.56L79.36-14.56L79.36-14.56Q77.92-7.36 77.92-5.12L77.92-5.12L77.92-5.12Q77.92-1.68 81.20-1.68L81.20-1.68L81.20-1.68Q83.52-1.68 85.72-4.40L85.72-4.40L85.72-4.40Q87.92-7.12 89.52-11.92L89.52-11.92L92.88-30.40L92.88-30.40Q98.80-30.40 101.52-30.88L101.52-30.88L102.56-31.12L97.20-0.88L97.20-0.88Q99.60-1.12 101.20-3.12L101.20-3.12L102.40-2.16L102.40-2.16Q100 0.72 96.40 0.72L96.40 0.72L96.40 0.72Q92.80 0.72 90.80-1.04L90.80-1.04L90.80-1.04Q88.80-2.80 88.72-6L88.72-6L88.72-6Q85.36 0.72 78.80 0.72L78.80 0.72L78.80 0.72Q74.08 0.72 71.44-1.96L71.44-1.96L71.44-1.96Q68.80-4.64 68.80-9.36L68.80-9.36L68.80-9.36Q68.80-11.84 70.32-18.92L70.32-18.92L70.32-18.92Q71.84-26 72-29.52" fill="#51cacc" stroke="none" stroke-width="none" transform="translate(-119.60000038146973,16.584889662000865)" style="fill: rgb(157, 248, 113);"></path></g><g class="path" style="transform: scale(0.91); transform-origin: -4.84px 1.38489px; animation: 1s linear -0.44s infinite normal forwards running breath-45bd7bb5-1e7a-4344-b187-5f5ec409f0fe;"><path d="M121.44-2.16L121.44-2.16Q119.04 0.72 115.44 0.72L115.44 0.72L115.44 0.72Q111.84 0.72 109.80-1.12L109.80-1.12L109.80-1.12Q107.76-2.96 107.76-5.92L107.76-5.92L107.76-5.92Q107.76-6.96 109.04-14.64L109.04-14.64L111.68-28.96L108.32-28.96L108.48-30.40L111.92-30.40L111.92-30.40Q117.84-30.40 120.64-30.88L120.64-30.88L121.76-31.12L116.24-0.88L116.24-0.88Q118.64-1.12 120.24-3.12L120.24-3.12L121.44-2.16" fill="#51cacc" stroke="none" stroke-width="none" transform="translate(-119.60000038146973,16.584889662000865)" style="fill: rgb(224, 255, 119);"></path></g><g class="path" style="transform: scale(0.91); transform-origin: -1.08px -26.3351px; animation: 1s linear -0.366667s infinite normal forwards running breath-45bd7bb5-1e7a-4344-b187-5f5ec409f0fe;"><path d="M114.40-38.80L114.40-38.80L114.40-38.80Q112.72-40.48 112.72-42.88L112.72-42.88L112.72-42.88Q112.72-45.28 114.40-47L114.40-47L114.40-47Q116.08-48.72 118.48-48.72L118.48-48.72L118.48-48.72Q120.88-48.72 122.60-47L122.60-47L122.60-47Q124.32-45.28 124.32-42.88L124.32-42.88L124.32-42.88Q124.32-40.48 122.60-38.80L122.60-38.80L122.60-38.80Q120.88-37.12 118.48-37.12L118.48-37.12L118.48-37.12Q116.08-37.12 114.40-38.80" fill="#51cacc" stroke="none" stroke-width="none" transform="translate(-119.60000038146973,16.584889662000865)" style="fill: rgb(222, 157, 214);"></path></g><g class="path" style="transform: scale(0.91); transform-origin: 21.12px 1.38489px; animation: 1s linear -0.293333s infinite normal forwards running breath-45bd7bb5-1e7a-4344-b187-5f5ec409f0fe;"><path d="M132.80-29.60L132.80-29.60L132.80-29.60Q130.80-29.60 129.44-28.24L129.44-28.24L129.44-28.24Q128.08-26.88 128.08-25.04L128.08-25.04L128.08-25.04Q128.08-23.20 129.12-21.28L129.12-21.28L127.68-20.72L127.68-20.72Q126.40-22.32 126.40-24.96L126.40-24.96L126.40-24.96Q126.40-27.60 128.20-29.36L128.20-29.36L128.20-29.36Q130.00-31.12 132.56-31.12L132.56-31.12L132.56-31.12Q135.12-31.12 139.40-30.36L139.40-30.36L139.40-30.36Q143.68-29.60 149-29.64L149-29.64L149-29.64Q154.32-29.68 156.88-30.32L156.88-30.32L135.68-2.08L135.68-2.08Q139.92-0.80 144.96-0.72L144.96-0.72L144.96-0.72Q148.16-0.72 150.52-2.52L150.52-2.52L150.52-2.52Q152.88-4.32 153.60-6.08L153.60-6.08L154.32-7.84L155.68-7.36L155.68-7.36Q154.96-4.48 152.40-1.88L152.40-1.88L152.40-1.88Q149.84 0.72 144.76 0.72L144.76 0.72L144.76 0.72Q139.68 0.72 135.52-0.40L135.52-0.40L135.52-0.40Q131.36-1.52 129.44-1.52L129.44-1.52L129.44-1.52Q127.52-1.52 126.00 0L126.00 0L124.56 0L145.52-28.32L145.52-28.32Q141.36-28.48 138.08-29.04L138.08-29.04L138.08-29.04Q134.80-29.60 132.80-29.60" fill="#51cacc" stroke="none" stroke-width="none" transform="translate(-119.60000038146973,16.584889662000865)" style="fill: rgb(255, 112, 142);"></path></g><g class="path" style="transform: scale(0.91); transform-origin: 54.64px 1.38489px; animation: 1s linear -0.22s infinite normal forwards running breath-45bd7bb5-1e7a-4344-b187-5f5ec409f0fe;"><path d="M166.32-29.60L166.32-29.60L166.32-29.60Q164.32-29.60 162.96-28.24L162.96-28.24L162.96-28.24Q161.60-26.88 161.60-25.04L161.60-25.04L161.60-25.04Q161.60-23.20 162.64-21.28L162.64-21.28L161.20-20.72L161.20-20.72Q159.92-22.32 159.92-24.96L159.92-24.96L159.92-24.96Q159.92-27.60 161.72-29.36L161.72-29.36L161.72-29.36Q163.52-31.12 166.08-31.12L166.08-31.12L166.08-31.12Q168.64-31.12 172.92-30.36L172.92-30.36L172.92-30.36Q177.20-29.60 182.52-29.64L182.52-29.64L182.52-29.64Q187.84-29.68 190.40-30.32L190.40-30.32L169.20-2.08L169.20-2.08Q173.44-0.80 178.48-0.72L178.48-0.72L178.48-0.72Q181.68-0.72 184.04-2.52L184.04-2.52L184.04-2.52Q186.40-4.32 187.12-6.08L187.12-6.08L187.84-7.84L189.20-7.36L189.20-7.36Q188.48-4.48 185.92-1.88L185.92-1.88L185.92-1.88Q183.36 0.72 178.28 0.72L178.28 0.72L178.28 0.72Q173.20 0.72 169.04-0.40L169.04-0.40L169.04-0.40Q164.88-1.52 162.96-1.52L162.96-1.52L162.96-1.52Q161.04-1.52 159.52 0L159.52 0L158.08 0L179.04-28.32L179.04-28.32Q174.88-28.48 171.60-29.04L171.60-29.04L171.60-29.04Q168.32-29.60 166.32-29.60" fill="#51cacc" stroke="none" stroke-width="none" transform="translate(-119.60000038146973,16.584889662000865)" style="fill: rgb(81, 202, 204);"></path></g><g class="path" style="transform: scale(0.91); transform-origin: 81.56px 1.38489px; animation: 1s linear -0.146667s infinite normal forwards running breath-45bd7bb5-1e7a-4344-b187-5f5ec409f0fe;"><path d="M207.84-2.16L207.84-2.16Q205.44 0.72 201.84 0.72L201.84 0.72L201.84 0.72Q198.24 0.72 196.20-1.12L196.20-1.12L196.20-1.12Q194.16-2.96 194.16-5.92L194.16-5.92L194.16-5.92Q194.16-6.96 195.44-14.64L195.44-14.64L198.08-28.96L194.72-28.96L194.88-30.40L198.32-30.40L198.32-30.40Q204.24-30.40 207.04-30.88L207.04-30.88L208.16-31.12L202.64-0.88L202.64-0.88Q205.04-1.12 206.64-3.12L206.64-3.12L207.84-2.16" fill="#51cacc" stroke="none" stroke-width="none" transform="translate(-119.60000038146973,16.584889662000865)" style="fill: rgb(157, 248, 113);"></path></g><g class="path" style="transform: scale(0.91); transform-origin: 85.32px -26.3351px; animation: 1s linear -0.0733333s infinite normal forwards running breath-45bd7bb5-1e7a-4344-b187-5f5ec409f0fe;"><path d="M200.80-38.80L200.80-38.80L200.80-38.80Q199.12-40.48 199.12-42.88L199.12-42.88L199.12-42.88Q199.12-45.28 200.80-47L200.80-47L200.80-47Q202.48-48.72 204.88-48.72L204.88-48.72L204.88-48.72Q207.28-48.72 209.00-47L209.00-47L209.00-47Q210.72-45.28 210.72-42.88L210.72-42.88L210.72-42.88Q210.72-40.48 209.00-38.80L209.00-38.80L209.00-38.80Q207.28-37.12 204.88-37.12L204.88-37.12L204.88-37.12Q202.48-37.12 200.80-38.80" fill="#51cacc" stroke="none" stroke-width="none" transform="translate(-119.60000038146973,16.584889662000865)" style="fill: rgb(224, 255, 119);"></path></g><g class="path" style="transform: scale(0.91); transform-origin: 106.56px 1.38489px; animation: 1s linear 0s infinite normal forwards running breath-45bd7bb5-1e7a-4344-b187-5f5ec409f0fe;"><path d="M229.68-31.12L229.68-31.12L229.68-31.12Q239.84-31.12 239.84-23.04L239.84-23.04L239.84-23.04Q239.84-18 235.08-15.40L235.08-15.40L235.08-15.40Q230.32-12.80 221.52-12.72L221.52-12.72L221.52-12.72Q221.36-9.84 221.36-8.16L221.36-8.16L221.36-8.16Q221.36-4.56 223-2.84L223-2.84L223-2.84Q224.64-1.12 227.12-1.12L227.12-1.12L227.12-1.12Q229.60-1.12 231.64-2.08L231.64-2.08L231.64-2.08Q233.68-3.04 234.88-4.36L234.88-4.36L234.88-4.36Q236.08-5.68 236.96-7.12L236.96-7.12L236.96-7.12Q238.56-9.76 238.56-10.48L238.56-10.48L240-9.84L240-9.84Q239.76-8.56 238.56-6.44L238.56-6.44L238.56-6.44Q237.36-4.32 235.92-2.96L235.92-2.96L235.92-2.96Q234.48-1.60 231.68-0.44L231.68-0.44L231.68-0.44Q228.88 0.72 225.44 0.72L225.44 0.72L225.44 0.72Q218.96 0.72 215.64-2.36L215.64-2.36L215.64-2.36Q212.32-5.44 212.32-10.80L212.32-10.80L212.32-10.80Q212.32-20.32 217.04-25.72L217.04-25.72L217.04-25.72Q221.76-31.12 229.68-31.12zM237.84-23.04L237.84-23.04Q237.84-25.68 236.28-27.40L236.28-27.40L236.28-27.40Q234.72-29.12 231.64-29.12L231.64-29.12L231.64-29.12Q228.56-29.12 225.64-25.44L225.64-25.44L225.64-25.44Q222.72-21.76 221.76-14.56L221.76-14.56L221.76-14.56Q237.84-14.64 237.84-23.04L237.84-23.04" fill="#51cacc" stroke="none" stroke-width="none" transform="translate(-119.60000038146973,16.584889662000865)" style="fill: rgb(222, 157, 214);"></path></g></g>
</g>
</g>
<style id="breath-45bd7bb5-1e7a-4344-b187-5f5ec409f0fe" data-anikit="">@keyframes breath-45bd7bb5-1e7a-4344-b187-5f5ec409f0fe
{
  0% {
    animation-timing-function: cubic-bezier(0.9647,0.2413,-0.0705,0.7911);
    transform: scale(0.9099999999999999);
  }
  51% {
    animation-timing-function: cubic-bezier(0.9226,0.2631,-0.0308,0.7628);
    transform: scale(1.02994);
  }
  100% {
    transform: scale(0.9099999999999999);
  }
}</style></svg>